<svg width="32" height="32" viewBox="0 0 32 32" fill="none" xmlns="http://www.w3.org/2000/svg">
<g id="Frame">
<path id="Vector" d="M30.9387 21.7985L27.2499 7.24976C27.1529 6.871 26.9474 6.52879 26.6588 6.26502C26.3702 6.00126 26.0109 5.82741 25.6249 5.76476L21.1174 5.02476C20.6205 4.94483 20.1117 5.05258 19.6898 5.32705C19.2679 5.60152 18.9632 6.02308 18.8349 6.50976L18.8087 6.61601C18.7917 6.68351 18.789 6.75382 18.8007 6.82243C18.8125 6.89104 18.8384 6.95645 18.8769 7.01446C18.9154 7.07247 18.9655 7.1218 19.0242 7.15931C19.0828 7.19681 19.1486 7.22166 19.2174 7.23226C20.2518 7.38405 21.2721 7.61898 22.2687 7.93476C22.5178 8.00993 22.729 8.17704 22.8595 8.40221C22.99 8.62738 23.0299 8.89373 22.9712 9.14726C22.9375 9.27937 22.8771 9.40319 22.7937 9.5111C22.7104 9.61902 22.6058 9.70875 22.4865 9.77478C22.3672 9.84081 22.2357 9.88174 22.1 9.89507C21.9643 9.90839 21.8273 9.89382 21.6974 9.85226C17.9997 8.71824 14.0477 8.71388 10.3474 9.83976C10.097 9.92395 9.82381 9.90846 9.58452 9.7965C9.34523 9.68454 9.15826 9.4847 9.06244 9.23851C9.0169 9.11217 8.99727 8.97796 9.00472 8.84388C9.01217 8.70979 9.04656 8.57858 9.10582 8.45807C9.16508 8.33757 9.24801 8.23023 9.34965 8.14247C9.4513 8.0547 9.56958 7.98831 9.69744 7.94726C10.7064 7.62587 11.7398 7.38675 12.7874 7.23226C12.8562 7.22166 12.9221 7.19681 12.9807 7.15931C13.0394 7.1218 13.0895 7.07247 13.128 7.01446C13.1665 6.95645 13.1924 6.89104 13.2042 6.82243C13.2159 6.75382 13.2132 6.68351 13.1962 6.61601L13.1699 6.50976C13.0416 6.02267 12.7365 5.60084 12.314 5.32652C11.8916 5.0522 11.3821 4.94507 10.8849 5.02601L6.37494 5.76601C5.98916 5.82856 5.62998 6.00223 5.34136 6.26576C5.05275 6.52928 4.84723 6.87123 4.74994 7.24976L1.06119 21.7985C0.945531 22.2558 0.995868 22.7393 1.20324 23.163C1.41062 23.5867 1.76159 23.9231 2.19369 24.1123L10.5687 27.826C10.8205 27.938 11.0926 27.9972 11.3682 28.0002C11.6437 28.0031 11.917 27.9497 12.1712 27.8432C12.4253 27.7366 12.655 27.5792 12.8461 27.3807C13.0372 27.1821 13.1857 26.9466 13.2824 26.6885L13.7187 25.5073C13.7447 25.4365 13.7543 25.3608 13.747 25.2858C13.7396 25.2108 13.7153 25.1384 13.676 25.0741C13.6367 25.0098 13.5833 24.9552 13.5199 24.9144C13.4566 24.8736 13.3848 24.8476 13.3099 24.8385C12.0956 24.6915 10.8976 24.432 9.73119 24.0635C9.48308 23.9881 9.27278 23.8215 9.14265 23.5972C9.01252 23.3729 8.97225 23.1076 9.02994 22.8548C9.06338 22.7223 9.12361 22.5981 9.20692 22.4898C9.29023 22.3815 9.39485 22.2914 9.51433 22.2251C9.6338 22.1588 9.7656 22.1177 9.90158 22.1043C10.0376 22.0909 10.1748 22.1055 10.3049 22.1473C14.0165 23.2839 17.9833 23.2839 21.6949 22.1473C21.8249 22.1057 21.962 22.0912 22.0977 22.1046C22.2335 22.118 22.3651 22.159 22.4844 22.2252C22.6037 22.2913 22.7082 22.3812 22.7915 22.4893C22.8748 22.5973 22.9351 22.7213 22.9687 22.8535C23.027 23.1065 22.9871 23.3723 22.8569 23.5969C22.7267 23.8216 22.516 23.9883 22.2674 24.0635C21.1015 24.4321 19.9039 24.6916 18.6899 24.8385C18.6151 24.8476 18.5433 24.8736 18.4799 24.9144C18.4166 24.9552 18.3632 25.0098 18.3239 25.0741C18.2846 25.1384 18.2603 25.2108 18.2529 25.2858C18.2455 25.3608 18.2552 25.4365 18.2812 25.5073L18.7174 26.6885C18.8143 26.9464 18.9629 27.1819 19.154 27.3803C19.3452 27.5788 19.5748 27.7361 19.8289 27.8426C20.0831 27.9492 20.3563 28.0026 20.6318 27.9998C20.9073 27.9969 21.1793 27.9378 21.4312 27.826L29.8062 24.1123C30.2383 23.9231 30.5893 23.5867 30.7966 23.163C31.004 22.7393 31.0544 22.2558 30.9387 21.7985ZM11.4999 18.9998C11.2033 18.9998 10.9133 18.9118 10.6666 18.747C10.4199 18.5821 10.2277 18.3479 10.1141 18.0738C10.0006 17.7997 9.97089 17.4981 10.0288 17.2071C10.0866 16.9161 10.2295 16.6489 10.4393 16.4391C10.6491 16.2293 10.9163 16.0865 11.2073 16.0286C11.4983 15.9707 11.7999 16.0004 12.074 16.1139C12.3481 16.2275 12.5823 16.4197 12.7471 16.6664C12.912 16.9131 12.9999 17.2031 12.9999 17.4998C12.9999 17.8976 12.8419 18.2791 12.5606 18.5604C12.2793 18.8417 11.8978 18.9998 11.4999 18.9998ZM20.4999 18.9998C20.2033 18.9998 19.9133 18.9118 19.6666 18.747C19.4199 18.5821 19.2277 18.3479 19.1141 18.0738C19.0006 17.7997 18.9709 17.4981 19.0288 17.2071C19.0866 16.9161 19.2295 16.6489 19.4393 16.4391C19.6491 16.2293 19.9163 16.0865 20.2073 16.0286C20.4983 15.9707 20.7999 16.0004 21.074 16.1139C21.3481 16.2275 21.5823 16.4197 21.7471 16.6664C21.912 16.9131 21.9999 17.2031 21.9999 17.4998C21.9999 17.8976 21.8419 18.2791 21.5606 18.5604C21.2793 18.8417 20.8978 18.9998 20.4999 18.9998Z" fill="black" fill-opacity="0.5"/>
</g>
</svg>
